<svg height="472pt" viewBox="-104 0 472 472" width="472pt" xmlns="http://www.w3.org/2000/svg"><path d="m24 72h224v32h-224zm0 0" fill="#787680"/><path d="m264 72h-256l128-72zm0 0" fill="#ffda44"/><path d="m248 264v32h-224v-32zm0 0" fill="#57565c"/><path d="m24 104h224v160h-224zm0 0" fill="#e0e0e2"/><path d="m136 232c-22.089844 0-40-17.910156-40-40 0-22.078125 40-64 40-64s40 41.921875 40 64c0 22.089844-17.910156 40-40 40zm0 0" fill="#5aaae7"/><g fill="#57565c"><path d="m40 296h16v176h-16zm0 0"/><path d="m216 296h16v176h-16zm0 0"/><path d="m43.300781 318.46875 9.410157-12.9375 176 127.996094-9.410157 12.941406zm0 0"/><path d="m43.308594 433.554688 175.96875-128.046876 9.414062 12.9375-175.96875 128.046876zm0 0"/></g><path d="m0 288h264v16h-264zm0 0" fill="#3e3d42"/><path d="m136 216c-13.253906 0-24-10.746094-24-24 0-4.417969 3.582031-8 8-8s8 3.582031 8 8 3.582031 8 8 8 8 3.582031 8 8-3.582031 8-8 8zm0 0" fill="#fff"/><path d="m24 72h224v8h-224zm0 0" fill="#57565c"/><path d="m48 112c4.417969 0 8 3.582031 8 8v16c0 4.417969-3.582031 8-8 8s-8-3.582031-8-8v-16c0-4.417969 3.582031-8 8-8zm0 0" fill="#fff"/><path d="m48 152c4.417969 0 8 3.582031 8 8s-3.582031 8-8 8-8-3.582031-8-8 3.582031-8 8-8zm0 0" fill="#fff"/></svg>